<svg width="19" height="20" viewBox="0 0 19 20" fill="none" xmlns="http://www.w3.org/2000/svg">
<g id="Frame">
<g id="Group">
<path id="Vector" d="M10.3686 11.7191C10.9114 10.8505 11.2371 9.83717 11.2371 8.75145C11.2371 5.71145 8.77618 3.2505 5.73618 3.2505C2.69618 3.2505 0.235229 5.71145 0.235229 8.75145C0.235229 11.7915 2.69618 14.2886 5.73618 14.2886C6.8219 14.2886 7.87142 13.9267 8.73999 13.3838L8.99332 13.2029L12.9019 17.1476L14.1324 15.9172L10.2238 11.9724L10.3686 11.7191ZM8.81237 5.67526C9.64475 6.50764 10.1152 7.59336 10.1152 8.75145C10.1152 9.90955 9.64475 10.9953 8.81237 11.8276C7.97999 12.66 6.89428 13.0943 5.73618 13.0943C4.57809 13.0943 3.49237 12.66 2.65999 11.8276C1.82761 10.9953 1.39332 9.90955 1.39332 8.75145C1.39332 7.59336 1.82761 6.50764 2.65999 5.67526C3.49237 4.84288 4.57809 4.4086 5.73618 4.4086C6.89428 4.4086 7.97999 4.84288 8.81237 5.67526Z" fill="#303030"/>
</g>
</g>
</svg>
